<svg xmlns="http://www.w3.org/2000/svg" version="1.1" xmlns:xlink="http://www.w3.org/1999/xlink" xmlns:svgjs="http://svgjs.dev/svgjs" width="1000" height="280" viewBox="0 0 1000 280"><g transform="matrix(1,0,0,1,-0.6060605928008158,0.25246650075686716)"><svg viewBox="0 0 396 111" data-background-color="#f9e17e" preserveAspectRatio="xMidYMid meet" height="280" width="1000" xmlns="http://www.w3.org/2000/svg" xmlns:xlink="http://www.w3.org/1999/xlink"><g id="tight-bounds" transform="matrix(1,0,0,1,0.24000000525086307,-0.10008493422861875)"><svg viewBox="0 0 395.52 111.20016986845727" height="111.20016986845727" width="395.52"><g><svg viewBox="0 0 395.52 111.20016986845727" height="111.20016986845727" width="395.52"><g transform="matrix(1,0,0,1,0,80.98561307558421)"><svg viewBox="0 0 395.52 30.214556792873054" height="30.214556792873054" width="395.52"><g id="textblocktransform"><svg viewBox="0 0 395.52 30.214556792873054" height="30.214556792873054" width="395.52" id="textblock"><g><svg viewBox="0 0 395.52 30.214556792873054" height="30.214556792873054" width="395.52"><g transform="matrix(1,0,0,1,0,0)"><svg width="395.52" viewBox="0.800000011920929 -34.29999923706055 448.9700012207031 34.29999923706055" height="30.214556792873054" data-palette-color="#454545"><path d="M13.55 0L0.8-34.3 5.95-34.3 15-9.35 16.7-4.75 16.95-4.75 18.55-9.15 27.65-34.3 32.55-34.3 19.8 0 13.55 0ZM31.85 0L45.15-34.3 51.2-34.3 64.5 0 59.45 0 56-9.15 40.1-9.15 36.75 0 31.85 0ZM41.65-13.3L54.45-13.3 50.45-24 48.15-30.2 47.9-30.2 45.65-24.1 41.65-13.3ZM68.8 0L68.8-34.3 86.64-34.3Q91.8-34.3 94.55-31.65 97.3-29 97.3-24.55L97.3-24.55Q97.3-21.05 95.62-18.5 93.94-15.95 91-14.85L91-14.85 98.9 0 93.59 0 86.14-14.15 73.55-14.15 73.55 0 68.8 0ZM73.55-18.3L86.39-18.3Q89.19-18.3 90.84-19.95 92.5-21.6 92.5-24.5L92.5-24.5Q92.5-27.2 90.94-28.68 89.39-30.15 86.39-30.15L86.39-30.15 73.55-30.15 73.55-18.3ZM112.94 0L112.94-30.15 101.14-30.15 101.14-34.3 129.49-34.3 129.49-30.15 117.69-30.15 117.69 0 112.94 0ZM127.24 0L140.54-34.3 146.59-34.3 159.89 0 154.84 0 151.39-9.15 135.49-9.15 132.14 0 127.24 0ZM137.04-13.3L149.84-13.3 145.84-24 143.54-30.2 143.29-30.2 141.04-24.1 137.04-13.3ZM164.19 0L164.19-34.3 180.89-34.3Q186.04-34.3 188.79-31.45 191.54-28.6 191.54-23.85L191.54-23.85Q191.54-19 188.66-16.07 185.79-13.15 180.89-13.15L180.89-13.15 168.94-13.15 168.94 0 164.19 0ZM168.94-17.3L180.64-17.3Q183.44-17.3 185.09-19.05 186.74-20.8 186.74-23.8L186.74-23.8Q186.74-26.85 185.19-28.5 183.64-30.15 180.64-30.15L180.64-30.15 168.94-30.15 168.94-17.3ZM197.53 0L197.53-34.3 215.39-34.3Q220.54-34.3 223.29-31.65 226.04-29 226.04-24.55L226.04-24.55Q226.04-21.05 224.36-18.5 222.69-15.95 219.74-14.85L219.74-14.85 227.64 0 222.34 0 214.89-14.15 202.28-14.15 202.28 0 197.53 0ZM202.28-18.3L215.14-18.3Q217.94-18.3 219.59-19.95 221.24-21.6 221.24-24.5L221.24-24.5Q221.24-27.2 219.69-28.68 218.14-30.15 215.14-30.15L215.14-30.15 202.28-30.15 202.28-18.3ZM230.03 0L243.33-34.3 249.38-34.3 262.68 0 257.63 0 254.18-9.15 238.28-9.15 234.93 0 230.03 0ZM239.83-13.3L252.63-13.3 248.63-24 246.33-30.2 246.08-30.2 243.83-24.1 239.83-13.3ZM272.23 0L272.23-30.15 260.43-30.15 260.43-34.3 288.78-34.3 288.78-30.15 276.98-30.15 276.98 0 272.23 0ZM294.48 0L294.48-34.3 299.23-34.3 299.23 0 294.48 0ZM307.73 0L307.73-34.3 312.48-34.3 312.48-15.4 330.63-34.3 336.53-34.3 323.48-20.6 336.98 0 331.33 0 320.18-17.2 312.48-10 312.48 0 307.73 0ZM341.07 0L341.07-34.3 358.92-34.3Q364.07-34.3 366.82-31.65 369.57-29 369.57-24.55L369.57-24.55Q369.57-21.05 367.9-18.5 366.22-15.95 363.27-14.85L363.27-14.85 371.17 0 365.87 0 358.42-14.15 345.82-14.15 345.82 0 341.07 0ZM345.82-18.3L358.67-18.3Q361.47-18.3 363.12-19.95 364.77-21.6 364.77-24.5L364.77-24.5Q364.77-27.2 363.22-28.68 361.67-30.15 358.67-30.15L358.67-30.15 345.82-30.15 345.82-18.3ZM377.82 0L377.82-34.3 382.57-34.3 382.57 0 377.82 0ZM401.47 0L401.47-14.2 387.92-34.3 393.67-34.3 403.87-18.6 404.12-18.6 414.27-34.3 419.72-34.3 406.22-14.2 406.22 0 401.47 0ZM417.12 0L430.42-34.3 436.47-34.3 449.77 0 444.72 0 441.27-9.15 425.37-9.15 422.02 0 417.12 0ZM426.92-13.3L439.72-13.3 435.72-24 433.42-30.2 433.17-30.2 430.92-24.1 426.92-13.3Z" opacity="1" transform="matrix(1,0,0,1,0,0)" fill="#454545" class="wordmark-text-0" data-fill-palette-color="primary" id="text-0"></path></svg></g></svg></g></svg></g></svg></g><g transform="matrix(1,0,0,1,164.40012517164217,0)"><svg viewBox="0 0 66.71974965671562 66.71974965671562" height="66.71974965671562" width="66.71974965671562"><g><svg></svg></g><g id="icon-0"><svg viewBox="0 0 66.71974965671562 66.71974965671562" height="66.71974965671562" width="66.71974965671562"><g><path d="M0 33.36c0-18.424 14.936-33.36 33.36-33.36 18.424 0 33.36 14.936 33.36 33.36 0 18.424-14.936 33.36-33.36 33.36-18.424 0-33.36-14.936-33.36-33.36zM33.36 63.995c16.919 0 30.635-13.716 30.635-30.635 0-16.919-13.716-30.635-30.635-30.635-16.919 0-30.635 13.716-30.635 30.635 0 16.919 13.716 30.635 30.635 30.635z" data-fill-palette-color="accent" fill="#454545" stroke="transparent"></path><ellipse rx="33.02627608007423" ry="33.02627608007423" cx="33.35987482835781" cy="33.35987482835781" fill="#454545" stroke="transparent" stroke-width="0" fill-opacity="1" data-fill-palette-color="accent"></ellipse></g><g transform="matrix(1,0,0,1,22.08367170823245,20.339545080950053)"><svg viewBox="0 0 22.55240624025072 26.04065949481551" height="26.04065949481551" width="22.55240624025072"><g><svg xmlns="http://www.w3.org/2000/svg" xmlns:xlink="http://www.w3.org/1999/xlink" version="1.1" x="0" y="0" viewBox="9.54699993133545 3.2899999618530273 80.906005859375 93.41999816894531" enable-background="new 0 0 100 100" xml:space="preserve" height="26.04065949481551" width="22.55240624025072" class="icon-s-0" data-fill-palette-color="quaternary" id="s-0"><g fill="#f9e17e" data-fill-palette-color="quaternary"><path d="M31.112 39.094v21.812L49.999 71.81l18.89-10.903V39.094l-18.89-10.905L31.112 39.094zM60.925 56.308l-10.926 6.307-10.924-6.307V43.692l10.924-6.308 10.926 6.308V56.308z" fill="#f9e17e" data-fill-palette-color="quaternary"></path><path d="M49.999 3.29L9.547 26.646v46.709L49.999 96.71l40.454-23.355V26.646L49.999 3.29zM82.19 68.584L49.999 87.169 17.811 68.584v-37.17l32.188-18.585L82.19 31.414V68.584z" fill="#f9e17e" data-fill-palette-color="quaternary"></path><path d="M20.368 32.89v34.218l29.631 17.108 29.634-17.108V32.89L49.999 15.782 20.368 32.89zM71.446 62.383l-21.447 12.38-21.444-12.38V37.618l21.444-12.382 21.447 12.382V62.383z" fill="#f9e17e" data-fill-palette-color="quaternary"></path></g></svg></g></svg></g></svg></g></svg></g><g></g></svg></g><defs></defs></svg><rect width="395.52" height="111.20016986845727" fill="none" stroke="none" visibility="hidden"></rect></g></svg></g></svg>